<svg id="visual" viewBox="0 0 1880 750" width="1880" height="750" xmlns="http://www.w3.org/2000/svg" xmlns:xlink="http://www.w3.org/1999/xlink" version="1.1"><rect x="0" y="0" width="1880" height="750" fill="#e1e1e1"></rect><path d="M0 587L34.8 578.3C69.7 569.7 139.3 552.3 209 553C278.7 553.7 348.3 572.3 418 576C487.7 579.7 557.3 568.3 627 568.3C696.7 568.3 766.3 579.7 835.8 581.3C905.3 583 974.7 575 1044.2 572C1113.7 569 1183.3 571 1253 574.5C1322.7 578 1392.3 583 1462 577.8C1531.7 572.7 1601.3 557.3 1671 554.2C1740.7 551 1810.3 560 1845.2 564.5L1880 569L1880 751L1845.2 751C1810.3 751 1740.7 751 1671 751C1601.3 751 1531.7 751 1462 751C1392.3 751 1322.7 751 1253 751C1183.3 751 1113.7 751 1044.2 751C974.7 751 905.3 751 835.8 751C766.3 751 696.7 751 627 751C557.3 751 487.7 751 418 751C348.3 751 278.7 751 209 751C139.3 751 69.7 751 34.8 751L0 751Z" fill="#beb4ff"></path><path d="M0 586L34.8 593.3C69.7 600.7 139.3 615.3 209 618.8C278.7 622.3 348.3 614.7 418 611.3C487.7 608 557.3 609 627 612C696.7 615 766.3 620 835.8 616.3C905.3 612.7 974.7 600.3 1044.2 597.2C1113.7 594 1183.3 600 1253 602.5C1322.7 605 1392.3 604 1462 605.3C1531.7 606.7 1601.3 610.3 1671 615.2C1740.7 620 1810.3 626 1845.2 629L1880 632L1880 751L1845.2 751C1810.3 751 1740.7 751 1671 751C1601.3 751 1531.7 751 1462 751C1392.3 751 1322.7 751 1253 751C1183.3 751 1113.7 751 1044.2 751C974.7 751 905.3 751 835.8 751C766.3 751 696.7 751 627 751C557.3 751 487.7 751 418 751C348.3 751 278.7 751 209 751C139.3 751 69.7 751 34.8 751L0 751Z" fill="#a492ed"></path><path d="M0 657L34.8 651.3C69.7 645.7 139.3 634.3 209 632.2C278.7 630 348.3 637 418 635.8C487.7 634.7 557.3 625.3 627 626.8C696.7 628.3 766.3 640.7 835.8 646.2C905.3 651.7 974.7 650.3 1044.2 645.2C1113.7 640 1183.3 631 1253 631.5C1322.7 632 1392.3 642 1462 642.3C1531.7 642.7 1601.3 633.3 1671 633.7C1740.7 634 1810.3 644 1845.2 649L1880 654L1880 751L1845.2 751C1810.3 751 1740.7 751 1671 751C1601.3 751 1531.7 751 1462 751C1392.3 751 1322.7 751 1253 751C1183.3 751 1113.7 751 1044.2 751C974.7 751 905.3 751 835.8 751C766.3 751 696.7 751 627 751C557.3 751 487.7 751 418 751C348.3 751 278.7 751 209 751C139.3 751 69.7 751 34.8 751L0 751Z" fill="#8c71d9"></path><path d="M0 646L34.8 652.7C69.7 659.3 139.3 672.7 209 678.7C278.7 684.7 348.3 683.3 418 683C487.7 682.7 557.3 683.3 627 678C696.7 672.7 766.3 661.3 835.8 656.7C905.3 652 974.7 654 1044.2 659.7C1113.7 665.3 1183.3 674.7 1253 674.8C1322.7 675 1392.3 666 1462 664.3C1531.7 662.7 1601.3 668.3 1671 670.3C1740.7 672.3 1810.3 670.7 1845.2 669.8L1880 669L1880 751L1845.2 751C1810.3 751 1740.7 751 1671 751C1601.3 751 1531.7 751 1462 751C1392.3 751 1322.7 751 1253 751C1183.3 751 1113.7 751 1044.2 751C974.7 751 905.3 751 835.8 751C766.3 751 696.7 751 627 751C557.3 751 487.7 751 418 751C348.3 751 278.7 751 209 751C139.3 751 69.7 751 34.8 751L0 751Z" fill="#754fc4"></path><path d="M0 702L34.8 701.3C69.7 700.7 139.3 699.3 209 698.7C278.7 698 348.3 698 418 699.5C487.7 701 557.3 704 627 704.8C696.7 705.7 766.3 704.3 835.8 703.8C905.3 703.3 974.7 703.7 1044.2 701.7C1113.7 699.7 1183.3 695.3 1253 695.5C1322.7 695.7 1392.3 700.3 1462 701.2C1531.7 702 1601.3 699 1671 696.5C1740.7 694 1810.3 692 1845.2 691L1880 690L1880 751L1845.2 751C1810.3 751 1740.7 751 1671 751C1601.3 751 1531.7 751 1462 751C1392.3 751 1322.7 751 1253 751C1183.3 751 1113.7 751 1044.2 751C974.7 751 905.3 751 835.8 751C766.3 751 696.7 751 627 751C557.3 751 487.7 751 418 751C348.3 751 278.7 751 209 751C139.3 751 69.7 751 34.8 751L0 751Z" fill="#5f2aae"></path></svg>