<svg
  id="visual"
  viewBox="0 0 1885 1580"
  width="1885"
  height="1580"
  xmlns="http://www.w3.org/2000/svg"
  xmlns:xlink="http://www.w3.org/1999/xlink"
  version="1.1"
><rect
    x="0"
    y="0"
    width="1885"
    height="1580"
    fill="#e1e1e1"
  /><defs><linearGradient
      id="grad1_0"
      x1="16.2%"
      y1="100%"
      x2="100%"
      y2="0%"
    ><stop
        offset="26.139240506329116%"
        stop-color="#9b0ca1"
        stop-opacity="1"
      /><stop
        offset="73.86075949367088%"
        stop-color="#9b0ca1"
        stop-opacity="1"
      /></linearGradient></defs><defs><linearGradient
      id="grad1_1"
      x1="16.2%"
      y1="100%"
      x2="100%"
      y2="0%"
    ><stop
        offset="26.139240506329116%"
        stop-color="#9b0ca1"
        stop-opacity="1"
      /><stop
        offset="73.86075949367088%"
        stop-color="#a947ab"
        stop-opacity="1"
      /></linearGradient></defs><defs><linearGradient
      id="grad1_2"
      x1="16.2%"
      y1="100%"
      x2="100%"
      y2="0%"
    ><stop
        offset="26.139240506329116%"
        stop-color="#b66cb5"
        stop-opacity="1"
      /><stop
        offset="73.86075949367088%"
        stop-color="#a947ab"
        stop-opacity="1"
      /></linearGradient></defs><defs><linearGradient
      id="grad1_3"
      x1="16.2%"
      y1="100%"
      x2="100%"
      y2="0%"
    ><stop
        offset="26.139240506329116%"
        stop-color="#b66cb5"
        stop-opacity="1"
      /><stop
        offset="73.86075949367088%"
        stop-color="#c18fbf"
        stop-opacity="1"
      /></linearGradient></defs><defs><linearGradient
      id="grad1_4"
      x1="16.2%"
      y1="100%"
      x2="100%"
      y2="0%"
    ><stop
        offset="26.139240506329116%"
        stop-color="#cab1c9"
        stop-opacity="1"
      /><stop
        offset="73.86075949367088%"
        stop-color="#c18fbf"
        stop-opacity="1"
      /></linearGradient></defs><defs><linearGradient
      id="grad1_5"
      x1="16.2%"
      y1="100%"
      x2="100%"
      y2="0%"
    ><stop
        offset="26.139240506329116%"
        stop-color="#cab1c9"
        stop-opacity="1"
      /><stop
        offset="73.86075949367088%"
        stop-color="#d2d2d2"
        stop-opacity="1"
      /></linearGradient></defs><defs><linearGradient
      id="grad2_0"
      x1="0%"
      y1="100%"
      x2="83.8%"
      y2="0%"
    ><stop
        offset="26.139240506329116%"
        stop-color="#9b0ca1"
        stop-opacity="1"
      /><stop
        offset="73.86075949367088%"
        stop-color="#9b0ca1"
        stop-opacity="1"
      /></linearGradient></defs><defs><linearGradient
      id="grad2_1"
      x1="0%"
      y1="100%"
      x2="83.8%"
      y2="0%"
    ><stop
        offset="26.139240506329116%"
        stop-color="#a947ab"
        stop-opacity="1"
      /><stop
        offset="73.86075949367088%"
        stop-color="#9b0ca1"
        stop-opacity="1"
      /></linearGradient></defs><defs><linearGradient
      id="grad2_2"
      x1="0%"
      y1="100%"
      x2="83.8%"
      y2="0%"
    ><stop
        offset="26.139240506329116%"
        stop-color="#a947ab"
        stop-opacity="1"
      /><stop
        offset="73.86075949367088%"
        stop-color="#b66cb5"
        stop-opacity="1"
      /></linearGradient></defs><defs><linearGradient
      id="grad2_3"
      x1="0%"
      y1="100%"
      x2="83.8%"
      y2="0%"
    ><stop
        offset="26.139240506329116%"
        stop-color="#c18fbf"
        stop-opacity="1"
      /><stop
        offset="73.86075949367088%"
        stop-color="#b66cb5"
        stop-opacity="1"
      /></linearGradient></defs><defs><linearGradient
      id="grad2_4"
      x1="0%"
      y1="100%"
      x2="83.8%"
      y2="0%"
    ><stop
        offset="26.139240506329116%"
        stop-color="#c18fbf"
        stop-opacity="1"
      /><stop
        offset="73.86075949367088%"
        stop-color="#cab1c9"
        stop-opacity="1"
      /></linearGradient></defs><defs><linearGradient
      id="grad2_5"
      x1="0%"
      y1="100%"
      x2="83.8%"
      y2="0%"
    ><stop
        offset="26.139240506329116%"
        stop-color="#d2d2d2"
        stop-opacity="1"
      /><stop
        offset="73.86075949367088%"
        stop-color="#cab1c9"
        stop-opacity="1"
      /></linearGradient></defs><g
    transform="translate(1885, 1580)"
  ><path
      d="M-915 0C-882.5 -68.1 -849.9 -136.3 -860.6 -230.6C-871.4 -324.9 -925.3 -445.5 -887.7 -512.5C-850 -579.5 -720.8 -593 -647 -647C-573.2 -701 -554.8 -795.7 -501.5 -868.6C-448.2 -941.6 -360 -992.9 -270.6 -1009.7C-181.1 -1026.5 -90.6 -1008.7 0 -991L0 0Z"
      fill="#cec1cd"
    /><path
      d="M-762.5 0C-735.4 -56.8 -708.3 -113.6 -717.2 -192.2C-726.1 -270.8 -771.1 -371.2 -739.7 -427.1C-708.4 -482.9 -600.7 -494.1 -539.2 -539.2C-477.7 -584.2 -462.3 -663 -417.9 -723.9C-373.5 -784.7 -300 -827.4 -225.5 -841.4C-151 -855.4 -75.5 -840.6 0 -825.8L0 0Z"
      fill="#c6a0c4"
    /><path
      d="M-610 0C-588.3 -45.4 -566.6 -90.8 -573.8 -153.7C-580.9 -216.6 -616.9 -297 -591.8 -341.7C-566.7 -386.3 -480.5 -395.3 -431.3 -431.3C-382.1 -467.4 -369.9 -530.4 -334.3 -579.1C-298.8 -627.7 -240 -661.9 -180.4 -673.1C-120.8 -684.3 -60.4 -672.5 0 -660.7L0 0Z"
      fill="#bb7eba"
    /><path
      d="M-457.5 0C-441.2 -34.1 -425 -68.1 -430.3 -115.3C-435.7 -162.5 -462.7 -222.7 -443.8 -256.3C-425 -289.8 -360.4 -296.5 -323.5 -323.5C-286.6 -350.5 -277.4 -397.8 -250.8 -434.3C-224.1 -470.8 -180 -496.5 -135.3 -504.9C-90.6 -513.2 -45.3 -504.4 0 -495.5L0 0Z"
      fill="#b05ab0"
    /><path
      d="M-305 0C-294.2 -22.7 -283.3 -45.4 -286.9 -76.9C-290.5 -108.3 -308.4 -148.5 -295.9 -170.8C-283.3 -193.2 -240.3 -197.7 -215.7 -215.7C-191.1 -233.7 -184.9 -265.2 -167.2 -289.5C-149.4 -313.9 -120 -331 -90.2 -336.6C-60.4 -342.2 -30.2 -336.2 0 -330.3L0 0Z"
      fill="#a230a6"
    /><path
      d="M-152.5 0C-147.1 -11.4 -141.7 -22.7 -143.4 -38.4C-145.2 -54.2 -154.2 -74.2 -147.9 -85.4C-141.7 -96.6 -120.1 -98.8 -107.8 -107.8C-95.5 -116.8 -92.5 -132.6 -83.6 -144.8C-74.7 -156.9 -60 -165.5 -45.1 -168.3C-30.2 -171.1 -15.1 -168.1 0 -165.2L0 0Z"
      fill="#9b0ca1"
    /></g><g transform="translate(0, 0)"><path
      d="M1045.3 0C1026.5 90.4 1007.6 180.8 974.6 261.1C941.7 341.5 894.6 411.7 857.4 495C820.1 578.3 792.6 674.6 724.8 724.8C656.9 775 548.7 779.1 464 803.7C379.3 828.2 318 873.2 244.6 912.8C171.2 952.4 85.6 986.7 0 1021L0 0Z"
      fill="#cec1cd"
    /><path
      d="M871.1 0C855.4 75.3 839.6 150.7 812.2 217.6C784.7 284.6 745.5 343.1 714.5 412.5C683.4 481.9 660.5 562.1 604 604C547.5 645.8 457.3 649.3 386.7 669.7C316.1 690.2 265 727.6 203.8 760.7C142.6 793.7 71.3 822.3 0 850.8L0 0Z"
      fill="#c6a0c4"
    /><path
      d="M696.9 0C684.3 60.3 671.7 120.5 649.7 174.1C627.8 227.7 596.4 274.5 571.6 330C546.7 385.5 528.4 449.7 483.2 483.2C438 516.7 365.8 519.4 309.3 535.8C252.8 552.1 212 582.1 163.1 608.5C114.1 634.9 57.1 657.8 0 680.7L0 0Z"
      fill="#bb7eba"
    /><path
      d="M522.7 0C513.2 45.2 503.8 90.4 487.3 130.6C470.8 170.7 447.3 205.9 428.7 247.5C410.1 289.1 396.3 337.3 362.4 362.4C328.5 387.5 274.4 389.6 232 401.8C189.6 414.1 159 436.6 122.3 456.4C85.6 476.2 42.8 493.4 0 510.5L0 0Z"
      fill="#b05ab0"
    /><path
      d="M348.4 0C342.2 30.1 335.9 60.3 324.9 87C313.9 113.8 298.2 137.2 285.8 165C273.4 192.8 264.2 224.9 241.6 241.6C219 258.3 182.9 259.7 154.7 267.9C126.4 276.1 106 291.1 81.5 304.3C57.1 317.5 28.5 328.9 0 340.3L0 0Z"
      fill="#a230a6"
    /><path
      d="M174.2 0C171.1 15.1 167.9 30.1 162.4 43.5C156.9 56.9 149.1 68.6 142.9 82.5C136.7 96.4 132.1 112.4 120.8 120.8C109.5 129.2 91.5 129.9 77.3 133.9C63.2 138 53 145.5 40.8 152.1C28.5 158.7 14.3 164.5 0 170.2L0 0Z"
      fill="#9b0ca1"
    /></g></svg>
