<svg id="visual" viewBox="0 0 1885 1580" width="1885" height="1580" xmlns="http://www.w3.org/2000/svg" xmlns:xlink="http://www.w3.org/1999/xlink" version="1.1"><rect x="0" y="0" width="1885" height="1580" fill="#2D2F31"></rect><defs><linearGradient id="grad1_0" x1="16.2%" y1="100%" x2="100%" y2="0%"><stop offset="26.139240506329116%" stop-color="#9b0ca1" stop-opacity="1"></stop><stop offset="73.86075949367088%" stop-color="#9b0ca1" stop-opacity="1"></stop></linearGradient></defs><defs><linearGradient id="grad1_1" x1="16.2%" y1="100%" x2="100%" y2="0%"><stop offset="26.139240506329116%" stop-color="#9b0ca1" stop-opacity="1"></stop><stop offset="73.86075949367088%" stop-color="#6a349c" stop-opacity="1"></stop></linearGradient></defs><defs><linearGradient id="grad1_2" x1="16.2%" y1="100%" x2="100%" y2="0%"><stop offset="26.139240506329116%" stop-color="#3f3e8b" stop-opacity="1"></stop><stop offset="73.86075949367088%" stop-color="#6a349c" stop-opacity="1"></stop></linearGradient></defs><defs><linearGradient id="grad1_3" x1="16.2%" y1="100%" x2="100%" y2="0%"><stop offset="26.139240506329116%" stop-color="#3f3e8b" stop-opacity="1"></stop><stop offset="73.86075949367088%" stop-color="#243d70" stop-opacity="1"></stop></linearGradient></defs><defs><linearGradient id="grad1_4" x1="16.2%" y1="100%" x2="100%" y2="0%"><stop offset="26.139240506329116%" stop-color="#243850" stop-opacity="1"></stop><stop offset="73.86075949367088%" stop-color="#243d70" stop-opacity="1"></stop></linearGradient></defs><defs><linearGradient id="grad1_5" x1="16.2%" y1="100%" x2="100%" y2="0%"><stop offset="26.139240506329116%" stop-color="#243850" stop-opacity="1"></stop><stop offset="73.86075949367088%" stop-color="#2d2f31" stop-opacity="1"></stop></linearGradient></defs><defs><linearGradient id="grad2_0" x1="0%" y1="100%" x2="83.8%" y2="0%"><stop offset="26.139240506329116%" stop-color="#9b0ca1" stop-opacity="1"></stop><stop offset="73.86075949367088%" stop-color="#9b0ca1" stop-opacity="1"></stop></linearGradient></defs><defs><linearGradient id="grad2_1" x1="0%" y1="100%" x2="83.8%" y2="0%"><stop offset="26.139240506329116%" stop-color="#6a349c" stop-opacity="1"></stop><stop offset="73.86075949367088%" stop-color="#9b0ca1" stop-opacity="1"></stop></linearGradient></defs><defs><linearGradient id="grad2_2" x1="0%" y1="100%" x2="83.8%" y2="0%"><stop offset="26.139240506329116%" stop-color="#6a349c" stop-opacity="1"></stop><stop offset="73.86075949367088%" stop-color="#3f3e8b" stop-opacity="1"></stop></linearGradient></defs><defs><linearGradient id="grad2_3" x1="0%" y1="100%" x2="83.8%" y2="0%"><stop offset="26.139240506329116%" stop-color="#243d70" stop-opacity="1"></stop><stop offset="73.86075949367088%" stop-color="#3f3e8b" stop-opacity="1"></stop></linearGradient></defs><defs><linearGradient id="grad2_4" x1="0%" y1="100%" x2="83.8%" y2="0%"><stop offset="26.139240506329116%" stop-color="#243d70" stop-opacity="1"></stop><stop offset="73.86075949367088%" stop-color="#243850" stop-opacity="1"></stop></linearGradient></defs><defs><linearGradient id="grad2_5" x1="0%" y1="100%" x2="83.8%" y2="0%"><stop offset="26.139240506329116%" stop-color="#2d2f31" stop-opacity="1"></stop><stop offset="73.86075949367088%" stop-color="#243850" stop-opacity="1"></stop></linearGradient></defs><g transform="translate(1885, 1580)"><path d="M-961 0C-931.5 -75.6 -902 -151.2 -899.3 -241C-896.5 -330.8 -920.5 -434.8 -891.1 -514.5C-861.8 -594.2 -779.1 -649.7 -709.9 -709.9C-640.7 -770.1 -585 -835 -514.5 -891.1C-444 -947.2 -358.8 -994.5 -270.6 -1009.7C-182.3 -1024.9 -91.2 -1007.9 0 -991L0 0Z" fill="#283440"></path><path d="M-800.8 0C-776.3 -63 -751.7 -126 -749.4 -200.8C-747.1 -275.6 -767.1 -362.3 -742.6 -428.8C-718.2 -495.2 -649.3 -541.4 -591.6 -591.6C-533.9 -641.8 -487.5 -695.9 -428.8 -742.6C-370 -789.4 -299 -828.8 -225.5 -841.4C-152 -854.1 -76 -840 0 -825.8L0 0Z" fill="#223b60"></path><path d="M-640.7 0C-621 -50.4 -601.4 -100.8 -599.5 -160.6C-597.7 -220.5 -613.7 -289.8 -594.1 -343C-574.5 -396.2 -519.4 -433.2 -473.3 -473.3C-427.2 -513.4 -390 -556.7 -343 -594.1C-296 -631.5 -239.2 -663 -180.4 -673.1C-121.6 -683.3 -60.8 -672 0 -660.7L0 0Z" fill="#2f3e7e"></path><path d="M-480.5 0C-465.8 -37.8 -451 -75.6 -449.6 -120.5C-448.3 -165.4 -460.2 -217.4 -445.6 -257.3C-430.9 -297.1 -389.6 -324.9 -355 -355C-320.4 -385.1 -292.5 -417.5 -257.3 -445.6C-222 -473.6 -179.4 -497.3 -135.3 -504.9C-91.2 -512.4 -45.6 -504 0 -495.5L0 0Z" fill="#533b95"></path><path d="M-320.3 0C-310.5 -25.2 -300.7 -50.4 -299.8 -80.3C-298.8 -110.3 -306.8 -144.9 -297 -171.5C-287.3 -198.1 -259.7 -216.6 -236.6 -236.6C-213.6 -256.7 -195 -278.3 -171.5 -297C-148 -315.7 -119.6 -331.5 -90.2 -336.6C-60.8 -341.6 -30.4 -336 0 -330.3L0 0Z" fill="#8228a0"></path><path d="M-160.2 0C-155.3 -12.6 -150.3 -25.2 -149.9 -40.2C-149.4 -55.1 -153.4 -72.5 -148.5 -85.8C-143.6 -99 -129.9 -108.3 -118.3 -118.3C-106.8 -128.4 -97.5 -139.2 -85.8 -148.5C-74 -157.9 -59.8 -165.8 -45.1 -168.3C-30.4 -170.8 -15.2 -168 0 -165.2L0 0Z" fill="#9b0ca1"></path></g><g transform="translate(0, 0)"><path d="M903 0C968.4 98.8 1033.8 197.5 1009.7 270.6C985.6 343.6 871.9 390.9 820.1 473.5C768.3 556.1 778.3 674.1 718.4 718.4C658.5 762.7 528.6 733.3 445 770.8C361.4 808.2 324 912.6 257.5 961.1C191.1 1009.6 95.5 1002.3 0 995L0 0Z" fill="#283440"></path><path d="M752.5 0C807 82.3 861.5 164.6 841.4 225.5C821.3 286.3 726.6 325.7 683.4 394.6C640.3 463.4 648.6 561.8 598.7 598.7C548.7 635.6 440.5 611.1 370.8 642.3C301.1 673.5 270 760.5 214.6 800.9C159.2 841.3 79.6 835.3 0 829.2L0 0Z" fill="#223b60"></path><path d="M602 0C645.6 65.8 689.2 131.7 673.1 180.4C657.1 229.1 581.3 260.6 546.8 315.7C512.2 370.8 518.9 449.4 478.9 478.9C439 508.5 352.4 488.9 296.7 513.8C240.9 538.8 216 608.4 171.7 640.7C127.4 673.1 63.7 668.2 0 663.3L0 0Z" fill="#2f3e7e"></path><path d="M451.5 0C484.2 49.4 516.9 98.8 504.9 135.3C492.8 171.8 436 195.4 410.1 236.7C384.2 278.1 389.2 337.1 359.2 359.2C329.2 381.4 264.3 366.6 222.5 385.4C180.7 404.1 162 456.3 128.8 480.5C95.5 504.8 47.8 501.2 0 497.5L0 0Z" fill="#533b95"></path><path d="M301 0C322.8 32.9 344.6 65.8 336.6 90.2C328.5 114.5 290.6 130.3 273.4 157.8C256.1 185.4 259.4 224.7 239.5 239.5C219.5 254.2 176.2 244.4 148.3 256.9C120.5 269.4 108 304.2 85.8 320.4C63.7 336.5 31.8 334.1 0 331.7L0 0Z" fill="#8228a0"></path><path d="M150.5 0C161.4 16.5 172.3 32.9 168.3 45.1C164.3 57.3 145.3 65.1 136.7 78.9C128.1 92.7 129.7 112.4 119.7 119.7C109.7 127.1 88.1 122.2 74.2 128.5C60.2 134.7 54 152.1 42.9 160.2C31.8 168.3 15.9 167.1 0 165.8L0 0Z" fill="#9b0ca1"></path></g></svg>