<svg xmlns="http://www.w3.org/2000/svg" viewBox="0 0 6000 4000"><defs><style>.cls-1{isolation:isolate;}.cls-11,.cls-2{fill:#fff;}.cls-3{fill:#606060;opacity:0.06;}.cls-4{fill:#2a3f58;}.cls-5{mix-blend-mode:multiply;}.cls-6{fill:#eaeaea;}.cls-7{fill:#fde5ab;}.cls-8{fill:#98d3d3;}.cls-9{fill:#ffb4b6;}.cls-10{fill:#fe9393;}.cls-11{opacity:0.1;mix-blend-mode:screen;}.cls-12,.cls-13{fill:none;stroke-miterlimit:10;}.cls-12{stroke:#abd0cf;}.cls-13{stroke:#ffb4b6;}.cls-14{fill:#abd0cf;}</style></defs><title>login2</title><g class="cls-1"><g id="BACKGROUND"><rect class="cls-2" width="6000" height="4000"/></g><g id="OBJECT"><path class="cls-3" d="M6000,0V4000H4532.8c59.36-63.36,93.68-143.12,78-228.72-15-81.76-73.6-158.16-57.2-239.6,14.24-70.4,81.92-118.4,150.72-138.8s142.08-20.64,212.24-36c73.12-16,141.68-49.68,200.4-96.08,3-2.32,6.08-4.72,9-7.28a514.72,514.72,0,0,0,126.32-154,477.36,477.36,0,0,0,36.32-88q1.68-5.52,3.12-11A477.47,477.47,0,0,0,5308,2894.24c.32-6.08.4-12.08.48-18.16.08-12.72-.4-25.44-1.28-38.16a513.8,513.8,0,0,0-9.12-67.2H5298c-16.56-81.84-52.8-159.76-106.24-223.84-3.44-4.16-7-8.32-10.56-12.32q-7.32-8-14.88-15.84c-117.28-119.44-282.48-170.56-440.64-230.8-8.08-3.12-16.16-6.16-24.16-9.36q-29-11.28-57.44-23.36c-180.72-77.28-364.72-225.12-360.32-421.68,3-137.76,100.56-267.6,74.08-402.88-48.64-249.28-450.32-279.84-522.56-523.36C3781,724.4,3959,547.2,4143.12,497c43.28-11.76,87.28-19.36,131.76-24.56,144.48-17,293.44-9.44,435.6-42.64A711.21,711.21,0,0,0,4885,363.76a754.58,754.58,0,0,0,81.52-50.4c90.56-64.08,167.68-147.44,227-242,14-22.32,26.8-46.48,39.12-71.36Z"/><path class="cls-3" d="M6000,0V1117.28c-28.72,7.12-57.44,14-86.24,20.24-13,2.88-26.08,5.68-39.12,8.24-71.84,14.16-144.16,23.44-217.44,21.36-65.2-1.84-128.8-12.64-190.88-29.84-23.12-6.32-46-13.6-68.72-21.68a1335.24,1335.24,0,0,1-139.2-58.88c-6.48-3-13-6.16-19.36-9.52-56.56-28.08-111.92-59.28-166.48-91.36-25.6-15-51-30.16-76.16-45.36-.56-.32-1.2-.72-1.76-1Q4889.76,846.32,4784.8,783.2c-2.56-1.52-5-3-7.52-4.48q-150.48-90.48-301-181c-67.68-40.72-135.52-81.6-201.44-125.2-92.32-60.72-180.8-126.56-259.44-204-61.68-64.56-146.4-161.6-211-268.48Z"/><path class="cls-3" d="M2455,4000H0V2731.28q23.76,18.6,48.32,35.92a1308.66,1308.66,0,0,0,207.92,120.24,1257.94,1257.94,0,0,0,122.32,49c15.84,5.44,31.68,10.56,47.68,15.28A1213.45,1213.45,0,0,0,668,2998.32a1144.12,1144.12,0,0,0,120.56,4.32c1.28.08,2.56,0,3.84,0,7-.16,14.08-.4,21-.64,10.64-.4,21.2-1,31.84-1.6,175.84-11,351.6-53.44,525.92-29.28,273,37.76,499,233,669.36,449.68C2187.36,3607.36,2306.16,3815.68,2455,4000Z"/><path class="cls-4" d="M4784.8,783.2c-8.8,71.84-.56,142.56,8.8,192.16,8,42.56,18.8,85.52,29.2,127.12,23,92,46.8,187.12,42.64,283.28-3.92,89.92-32.08,179-59.44,265-39,123.36-76,239.84-48.8,360.24a351.57,351.57,0,0,0,50.64,118.16c1.12,1.68,2.24,3.28,3.44,5,80.4,116.56,226.8,184.48,376.08,203.84,2.8.4,5.52.72,8.24,1a680.55,680.55,0,0,0,128.64,3c75.28-5.44,149.6-20.4,222.72-39.84,4.24-1,8.48-2.24,12.64-3.44,35-9.44,69.6-19.92,104-30.88,6-1.84,11.92-3.76,17.92-5.68,26.48-8.4,52.72-17.12,78.88-25.76,46.32-15.36,93.52-31,141.2-45.36,32.64-9.92,65.52-19.2,98.4-27.44V2172c-33,8.24-65.92,17.6-98.64,27.6-46.72,14.08-93,29.44-138.48,44.48-26.48,8.72-53.12,17.6-80,26.16l-17.44,5.52c-30.88,9.84-62,19.28-93.36,28-4.32,1.2-8.56,2.4-12.88,3.52-76.8,20.88-155,37-234.4,42.8-15.68,1.12-31.52,1.68-47.36,1.68a683.34,683.34,0,0,1-84.72-5.28c-2.64-.32-5.36-.72-8.08-1.12-77.36-10.4-152.72-33.76-217.76-68.32-53-28.08-115.2-71.92-161-137.2-1.12-1.44-2.08-2.8-3-4.24a355.25,355.25,0,0,1-53.44-122.8c-27.68-122.48,11.36-245.44,49-364.4,27.12-85.6,55.2-174.16,59-263,4.16-95-19.52-189.52-42.4-281-10.4-41.76-21.2-84.88-29.28-127.6-9.6-51-18.08-124-8.48-198.16,9.12-70.72,34.72-142.4,91.36-196.8,31.68-30.4,68.4-50.88,106.64-64.16,32.32-11.36,65.76-17.6,98.16-20.48,56.88-5,110.48.4,149.28,6.88,52.72,8.8,105.36,22.64,156.24,36.08,67.36,17.68,137,36,207.12,42.64a576.25,576.25,0,0,0,148.24-5.52c92.56-15.44,183.6-52.72,265.68-109.28v9.68c-82.16,55.76-173,92.48-265.36,107.6a580.84,580.84,0,0,1-149.28,5.52c-70.88-6.72-140.8-25.12-208.4-42.88-50.72-13.36-103.2-27.2-155.6-35.92-37.76-6.32-89.84-11.6-145.12-7-32.32,2.64-65.68,8.72-97.84,20-37.44,13-73.36,32.88-104.24,62.56C4818.16,641.52,4793.36,712.88,4784.8,783.2Z"/><path class="cls-4" d="M1421.2,1850.16c-11.36,86.08-63.44,173-135.84,226.72-33.2,24.64-69.2,44.32-106.88,60.48-4,1.76-8,3.44-12.08,5.12-73.52,30-153,47.92-230.8,65.44-23,5.2-46.08,10.4-68.88,15.84q-55.68,13.32-110.48,29.6-58.92,17.52-116.72,38.24c-3.84,1.36-7.68,2.72-11.44,4.08q-38.88,14.16-77.2,29.68-36.84,15-73.2,31.28-70,31.2-137.6,67.12c-6.64,3.52-13.2,7-19.68,10.64-13.52,7.28-27,14.8-40.32,22.4A2306.88,2306.88,0,0,0,0,2644.8v-8.64A2316.1,2316.1,0,0,1,276.56,2450.8c16.24-9.28,32.56-18.4,49-27.2,3.68-2,7.28-4,11-5.92A2274.49,2274.49,0,0,1,626.8,2287.92c4.16-1.52,8.32-3,12.48-4.48q55.08-19.8,110.88-36.48,57-17.16,114.72-31c22.8-5.52,45.92-10.64,69-15.92,75.44-17,152.48-34.32,223.84-62.72,3.92-1.6,7.84-3.12,11.68-4.8,39.36-16.48,76.88-36.56,111.28-62.08,70.72-52.56,121.52-137.36,132.64-221.36,8.16-61.76-5.76-117.44-40.16-161C1306.8,1604.4,1199,1593,1085,1581c-64-6.72-129.44-13.6-188.16-34.32-26.72-9.36-52-21.6-75.2-38-3.12-2.16-6.08-4.4-9-6.72a257.75,257.75,0,0,1-23.76-20.72c-4.48-4.4-8.8-8.88-12.88-13.52-20.16-22.32-36.32-47.6-49.68-74.8-33.36-67.84-49.12-147.92-64.64-226.32-10.64-54-21.68-109.76-38.24-160.72-1.36-4.08-2.72-8.24-4.16-12.32-65.52-187.76-229.6-351.12-453-451-3.44-1.6-6.88-3.12-10.4-4.64-8.08-3.52-16.24-7-24.32-10.24C88.32,510,44.48,494.8,0,481.52V473.2c43.28,12.8,86.08,27.44,128.08,44.48,10.32,4.16,20.64,8.4,30.88,12.88,1.76.8,3.52,1.52,5.28,2.4,226,99.68,392.64,263.68,460.64,452.72,2.16,5.92,4.16,11.84,6.08,17.76,16.72,51.36,27.76,107.44,38.48,161.6,15.44,77.92,31.12,157.52,64.16,224.64,13.36,27.2,29.44,52.32,49.76,74.48,1.76,2.08,3.68,4.08,5.6,6.08a241.32,241.32,0,0,0,23.52,21.52c4.4,3.68,9,7.12,13.68,10.48,24.88,17.6,52.4,30.32,81.6,39.84,55.84,18.16,117.6,24.72,178,31,115.84,12.16,225.28,23.68,293.6,110.08C1415.2,1728.48,1429.68,1786.16,1421.2,1850.16Z"/><g class="cls-5"><path class="cls-6" d="M6000,587.52V4000h-32.64q-22.92-46.68-47.6-92.48c-166.64-309.6-394.16-586.64-667.44-808q-58.32-47.28-119.44-91.12c-4.72-3.36-9.44-6.8-14.16-10.16l-13-9.12c-18.64-13.12-37.52-26-56.4-38.88-87.2-59.6-174.64-119.12-246.88-195.6-91.68-97-157.52-228.88-138.64-360.88,5.92-41.68,19.2-79.68,37.68-115.2,13.6-26.24,30.16-51.12,48.72-75,1.76-2.24,3.52-4.48,5.28-6.64q11-13.8,22.88-27.2c8.8-10.08,18-20,27.44-29.84l5.44-5.68c93.92-96.8,210.24-184.16,282.4-296.88a471.3,471.3,0,0,0,28.48-50.8c74.4-155.28,52-343.6,64.72-516.4,2.08-29,5.2-57.44,9.92-85.28,1.76-10.24,3.68-20.32,5.92-30.4,8.16-37.36,19.68-73.28,36.32-107.2a369.28,369.28,0,0,1,43.36-69.12c50.8-64.08,115.6-106,186.8-138.16a8.07,8.07,0,0,1,1.2-.56c83.76-37.76,176.16-62.16,264.8-93.36,84.56-29.92,165.52-66.08,232.08-126.32q4.56-4.08,9.12-8.4,5.88-5.52,11.52-11.28C5992,595.92,5996.08,591.76,6000,587.52Z"/></g><path class="cls-7" d="M6000,587.52V3922.64q-45.84-100.8-100.32-197.36a2572.54,2572.54,0,0,0-259.2-377.52,2518.74,2518.74,0,0,0-348.72-347.28q-59.64-48.84-122.4-93.84c-4.56-3.28-9-6.56-13.6-9.76-16.08-11.36-32.32-22.56-48.64-33.76-89.36-61.2-180.16-121.12-254.32-199.6-87.76-92.88-150.88-219.28-132.8-345.68,1.44-10.24,3.36-20.16,5.68-29.92,10.32-43,28.8-81.84,52.72-118.24q11.4-17.4,24.4-34.08c1.68-2.16,3.36-4.32,5-6.4,81.52-102.24,200.8-186.88,285.84-291.92,25.52-31.52,48-65,65.36-101.2,67.76-141.28,51.76-311,60.32-469.52,2.08-36.4,5.28-72.16,11.2-106.88,6-35.6,14.88-70.08,27.84-103,13.2-33.6,30.72-65.44,54.16-95,43.28-54.64,97.28-92.4,156.64-121.76a8.07,8.07,0,0,1,1.2-.56c82.4-40.64,175.12-65.2,264.4-96,84.56-29.28,166-64.16,232.48-123.68q4.56-4.08,9.12-8.4,5.88-5.52,11.52-11.28C5992,595.92,5996.08,591.76,6000,587.52Z"/><path class="cls-4" d="M5192.72,2346.48c-21.36,61-14.48,136.72-1,200.4a805.06,805.06,0,0,0,25,90.48c15.36,45.52,31.68,91.84,49.44,137.68,8.56,22.16,17.44,44.16,26.8,65.92,5,11.76,10.24,23.52,15.52,35.12,68,149.36,158.4,283.36,294.88,355.12a426.26,426.26,0,0,0,40.56,19q5.4,2.28,10.8,4.32c104.64,39.84,219.84,38.24,331.28,36.64,4.64-.08,9.36-.16,14-.16V3299l-13.92.24c-112.16,1.6-228.16,3.2-334.24-37.12-1.44-.56-2.88-1.12-4.24-1.68a434,434,0,0,1-41.6-18.8c-137.52-69.6-229-200.32-298-347.36q-11.88-25.32-23-51.28-14-32.88-26.8-66.24c-17.68-45.6-33.84-91.6-49.12-136.8a790,790,0,0,1-27.92-105.36c-11.6-61.12-16.24-131.28,3.44-189.2.88-2.48,1.76-5,2.72-7.36,14.24-37.28,39.2-68.88,79.68-89,80.16-39.76,167-3,251.12,32.64,13.68,5.76,27.52,11.6,41.44,17.2,4.16,1.68,8.32,3.28,12.48,5,17.44,6.64,34.88,12.72,52.08,17.44a348.24,348.24,0,0,0,50.08,9.84c4.48.56,8.88,1,13.28,1.44,72.4,6.16,143.52-10.24,208.48-41.68a526.57,526.57,0,0,0,104-66.8v10.16a537.07,537.07,0,0,1-104.88,65.92c-64.88,30.56-135.6,46.4-207.68,40.32-4.16-.32-8.4-.72-12.64-1.28a342.11,342.11,0,0,1-52.72-10.16c-20.88-5.68-42-13.36-62.88-21.68q-6.12-2.4-12.24-5c-10.72-4.32-21.36-8.8-31.92-13.28-86.16-36.48-167.52-71-244.4-32.8-37.68,18.72-61.28,48.08-75,82.88C5194.56,2341.52,5193.68,2344,5192.72,2346.48Z"/><g class="cls-5"><path class="cls-6" d="M845.28,3000.4c-1.52,9.92-3.6,19.92-6.16,30-1.36,5.12-2.8,10.24-4.4,15.28A338.16,338.16,0,0,1,800,3121.84a433.5,433.5,0,0,1-29.92,42.88c-52,66.24-123,121.2-191.36,172.08q-68.88,51.48-137.76,103-31.8,23.64-63.6,47.44c-3,2.32-6.16,4.56-9.2,6.88q-50.4,37.56-100.8,75.2c-2.8,2-5.6,4.16-8.4,6.24Q129.48,3672.12,0,3768.8V0H444.48A1153.79,1153.79,0,0,0,418.4,235.84a1094.73,1094.73,0,0,0,17.92,207.52c.48,3,1,5.92,1.6,8.88v.08c.64,3.52,1.36,7.12,2.08,10.64a1058.11,1058.11,0,0,0,26.72,104.48c9,28.8,19,57.28,30,85.52,40.08,102.88,91.92,202.72,142.08,302.4,65,129.44,127.12,258.64,156.32,393.92q5.64,26,9.6,52.32,3.48,23.4,5.44,47.12c1.28,14.24,2,28.56,2.32,43,.08,3.44.16,6.8.08,10.24q.12,6.12,0,12.24c0,3.76-.08,7.6-.16,11.36-.16,4.32-.32,8.56-.48,12.88-.88,18.32-2.56,36.48-4.88,54.64-15.68,123.12-61.92,243-101.84,362.4a6.08,6.08,0,0,0-.32.88c-5.2,15.36-10.16,30.72-15,46.08-20.48,64.8-37.68,129.52-45.68,194.72a610,610,0,0,0-4.88,86.24c.08,2.72.08,5.44.24,8.16.32,10.24.88,20.48,1.84,30.8,1,11.28,2.4,22.64,4.24,34,.32,2.64.8,5.36,1.28,8a5.4,5.4,0,0,0,.16,1.12c.72,4.32,1.6,8.56,2.48,12.88,17,83.44,55.2,163.68,93.6,243,7.52,15.6,15.12,31.28,22.56,46.88,4.4,9.12,8.64,18.16,12.88,27.28,13.68,29.68,26.56,59.2,37.44,88.88C842,2855.52,856.8,2927,845.28,3000.4Z"/></g><path class="cls-7" d="M814.72,2942.32a318.33,318.33,0,0,1-22.32,60.32l-1.2,2.4a395.92,395.92,0,0,1-43.52,67.68C697.2,3137,628.24,3190.4,561.92,3239.84q-62.64,46.8-125.44,93.68l-176.88,132c-2.72,2-5.44,4.08-8.16,6.08Q125.68,3565.44,0,3659.28V0H431.6a1116.37,1116.37,0,0,0-25.44,243.76,1060.88,1060.88,0,0,0,19,195.36v.08c1.28,6.72,2.64,13.44,4.08,20.08Q439,505.6,453.12,551c9.44,30.4,20.24,60.48,32,90.32C528.08,750.08,584.48,855.44,637,961c64.8,130.64,123.84,261.6,144.4,399.84a674.34,674.34,0,0,1,7.68,100.4c0,3-.08,6-.08,9,0,3.68-.08,7.36-.16,11l-.48,12.48c-2,41.2-8,82-16.72,122.48-23.76,110.56-67.28,218.88-101.52,327.12-.08.32-.24.64-.32,1-26.32,83.36-47,166.64-49,251a509.72,509.72,0,0,0,6,92.64c.32,2.56.8,5.2,1.28,7.76a5.4,5.4,0,0,0,.16,1.12c1.52,8.4,3.2,16.72,5.12,25,4.4,19,9.84,37.92,16.16,56.64,27.28,81.44,70,160.24,106.4,238.88,7.28,15.76,14.32,31.44,20.88,47.12,16.8,39.92,30.8,79.84,39.2,120.08C826.8,2836.32,828.4,2888.72,814.72,2942.32Z"/><g class="cls-5"><path class="cls-6" d="M825.44,1437.68c-4.88,3.84-10,7.6-15.28,11-2.56,1.68-5.12,3.36-7.76,5-4.4,2.72-8.88,5.28-13.36,7.6-1.84,1-3.76,2-5.68,2.88q-3.72,1.92-7.44,3.6c-.32.16-.56.24-.88.4-2.64,1.2-5.2,2.32-7.84,3.44-147.36,61.28-330.48-25.84-437.68-151.28-43.84-51.44-80.08-108.24-114-166.72-11.12-19.2-22-38.64-32.88-58.08-1.76-3.12-3.52-6.24-5.2-9.36-41.6-74.56-82.72-149.52-134.32-217.28-10.72-14.16-22.32-28-34.64-41.36-2.8-3-5.6-6.08-8.48-9.12V0H608.8C571.44,70.08,537.6,137.92,533,225.6a383.48,383.48,0,0,0-.08,40.72c4.48,92.08,37.6,178.4,82.8,259.76,3.28,5.84,6.56,11.76,10,17.6l1.44,2.4c24.8,42.64,52.72,84,81,123.92C794,791.52,888.32,912.48,926.48,1056.4,962.08,1191,933.6,1353.84,825.44,1437.68Z"/></g><path class="cls-8" d="M795.12,1349.28c-4.4,4.08-9,7.92-13.76,11.6A220.51,220.51,0,0,1,759.52,1376a223.68,223.68,0,0,1-25.92,13.68c-2.48,1.2-4.88,2.24-7.36,3.28-139.52,58-312.88-24.48-414.32-143.2-45.28-53.12-82-112.4-116.72-173.12q-11.28-19.8-22.32-39.68c-41-73.44-81.2-147.68-132.08-214.48C33,812.24,24.88,802.24,16.16,792.4,11,786.4,5.52,780.48,0,774.64V0H576.24c-36.24,68.08-69,133.84-72.08,220.16-.32,10.32-.32,21,.24,31.92C509,345.6,544.72,432.8,592.24,514.64c3.92,6.8,7.92,13.52,12.08,20.24,20.64,34.08,43.12,67.2,65.92,99.36C751.6,749.2,840.88,863.76,877,999.92,909,1121.52,886.08,1267.2,795.12,1349.28Z"/><g class="cls-5"><path class="cls-6" d="M6000,3140.64V4000H4825q267-196.32,534.16-392.48c44.08-32.48,92.64-73.12,92.72-127.84.08-19.44-5-35.84-14.08-49.76-38.24-59.52-146.72-76.16-224.24-105.52a258.5,258.5,0,0,1-53.2-27.68l-.08-.08A289.3,289.3,0,0,1,5117,3260.8c-67.84-68.56-102.64-171.2-81.76-266a257.93,257.93,0,0,1,14.16-44.56,286.39,286.39,0,0,1,57.76-87.12c5.44-5.6,11-11,16.88-16.24,34.88-31.36,77-54.8,122-67.12,2.72-.8,5.52-1.52,8.32-2.16,1.28-.32,2.56-.64,3.92-.88q4-1,7.92-1.68a264.84,264.84,0,0,1,31.84-4.32h.08a254.26,254.26,0,0,1,37.44-.08c85.28,6.16,160,48.64,228.72,102,3.92,3,7.84,6.08,11.68,9.2,3.76,3,7.52,6,11.2,9.12,28.88,23.6,56.64,48.72,83.68,73.28,14.32,13,29,26.08,44,38.88C5798.56,3074.64,5893,3138.4,6000,3140.64Z"/></g><path class="cls-9" d="M6000,3185.2V4000H4885.84q253.2-186.12,506.48-372.16c41.84-30.8,87.84-69.28,87.92-121.2.08-34.24-16.72-58.32-42.48-76.72-47.28-33.76-124.8-48.24-183.52-70.48-35.76-13.52-67.52-35.36-93.92-62.72l-.08-.08a292.68,292.68,0,0,1-34.24-43.12c-39.28-60.64-56.32-135.92-40.8-206.64a249.7,249.7,0,0,1,20.56-57.76,276.44,276.44,0,0,1,63.6-82.48c33.12-29.76,73-52,115.68-63.68,2.64-.72,5.28-1.44,7.92-2,4.72-1.12,9.44-2.16,14.24-3a249.49,249.49,0,0,1,62.72-3.6c75.2,5.44,141.76,40.64,203.12,86.24,4.64,3.44,9.2,7,13.76,10.48,35.2,27.2,68.64,57.52,101,86.88,22.48,20.4,45.76,40.88,70,60.24C5830.08,3135.92,5910.4,3183.28,6000,3185.2Z"/><g class="cls-5"><path class="cls-6" d="M6000,1334V3805.44a1019.4,1019.4,0,0,1-100.32-80.16,979.29,979.29,0,0,1-259.2-377.52c-2-5.28-4-10.48-5.92-15.76q-2-5.16-3.84-10.56-14-39.36-24.72-79.84c-1-3.44-1.84-7-2.64-10.4a1023.17,1023.17,0,0,1-31.92-240.8c-.32-23.28.24-46.64,1.6-69.84.72-13,1.68-25.84,2.88-38.72a974.32,974.32,0,0,1,16.16-106.32c27.52-132.32,81.84-265.6,83.76-397.68.08-2.72.08-5.44.08-8.16,0-10.24-.4-20.4-1.12-30.56-.16-2.72-.32-5.36-.56-8.08q-1.2-13-3.12-25.92c-.4-2.72-.8-5.6-1.44-8.32-1.12-7-2.56-14-4.24-21-.56-2.56-1.2-5.2-1.84-7.84,0-.08-.08-.24-.08-.32-47.52-185-235.6-319.92-246.4-510.48-13.2-231.92,246.16-408.56,484.64-425.6l3.52-.24c2-.16,4-.24,6-.32q10.68-.6,21.12-.72c7.52-.16,15-.16,22.32.16Q5977.76,1331.12,6000,1334Z"/></g><path class="cls-4" d="M6000,1333.84v2383c-97.2-68.08-182.16-153.52-248.4-252a957.39,957.39,0,0,1-104-204.48c-1.28-3.36-2.48-6.72-3.68-10.16A993.65,993.65,0,0,1,5586.8,2931c-.16-13.36-.08-26.72.32-40.08a953.83,953.83,0,0,1,19.52-167.12c26.56-127.6,79-256.16,80.8-383.44.08-2.64.08-5.28.08-7.92a417.11,417.11,0,0,0-4.64-62.24c-.4-2.64-.8-5.36-1.36-8-1.6-9.36-3.6-18.8-6-28.16-45.76-178.32-227.12-308.48-237.52-492.24-12.72-223.6,237.36-393.92,467.28-410.4,2-.16,4-.24,6-.4,7-.4,14.16-.72,21.12-.8,7.52-.16,15-.16,22.32.16A441.44,441.44,0,0,1,6000,1333.84Z"/><g class="cls-5"><path class="cls-6" d="M511.6,1888.64c0,.32-.08.64-.08,1a387.47,387.47,0,0,1-18.88,109.84c-2.48,7.6-5.28,15.12-8.24,22.48-.64,1.52-1.28,3.12-1.92,4.72a5.51,5.51,0,0,0-.24.64c-25.36,60.8-65.44,112.8-113,159.6-34.56,34.16-73.12,65.52-112.8,95.6-15.2,11.44-30.64,22.72-46,33.92l-7,5c-21.36,15.44-42.72,30.72-63.68,46C91.28,2402.88,42.64,2443,0,2487.44V107.76c25,58.88,52.56,117,78.4,175.36,14.56,33,28.64,66.16,41.28,99.68,3.12,8.16,6.16,16.32,9.12,24.56,2.08,5.84,4.08,11.68,6.08,17.6,1.12,3.6,2.32,7,3.52,10.56A869.09,869.09,0,0,1,164.24,533q1.08,4.8,1.92,9.6c.8,4.24,1.6,8.56,2.32,12.8,9.6,57.28,12,115.36,12.16,173.6.24,81-3.76,162.48,1.36,242.72,2.24,35.28,6.24,70.24,13.2,105,1,5.52,2.24,11.12,3.52,16.64,4.64,20.48,10.32,40.56,16.8,60.32,44,133.68,126.56,253.36,193.44,378.48,54.08,101.28,98.88,215.36,102.56,328.08C511.84,1869.68,511.84,1879.12,511.6,1888.64Z"/></g><path class="cls-10" d="M467.92,2013.2c-21.6,65.76-61,121-109.2,170.08-32.4,33-68.72,63.2-106.48,92.08-17.2,13.2-34.72,26.08-52.32,38.88-22.48,16.32-45,32.4-67.12,48.48C86.72,2396.32,40.48,2434.4,0,2476.64V216.4c23.68,55.92,49.92,111,74.48,166.56,3.6,8.16,7.12,16.24,10.64,24.4,15.68,36.4,30.4,73,43,110.32,1.12,3.36,2.24,6.64,3.36,10,12.08,37.2,22,75,28.56,113.84a786.54,786.54,0,0,1,9.2,83.28c6.4,103.6-3,208.88,3.68,312.16,1,16.48,2.48,32.88,4.56,49.2a643.38,643.38,0,0,0,11.28,66.24c34.24,150.8,126.8,280.4,199.68,416.8,51.28,95.92,93.68,203.84,97.36,310.56a4.56,4.56,0,0,1,.08,1C487.36,1925.52,482.16,1969.92,467.92,2013.2Z"/><g class="cls-5"><path class="cls-6" d="M1391.84,2649.92c-122.72,99-300.08-.08-457.6-8.56-49-2.72-96.56,4.08-142.24,18-5.12,1.6-10.16,3.2-15.2,5-3.68,1.2-7.44,2.56-11.12,3.92-69.2,25.84-133.6,68-191.6,118.88q-28.44,25.2-54.72,52.72c-2.8,2.88-5.52,5.76-8.24,8.64a1033.06,1033.06,0,0,0-71,84.48q-7,9.24-13.92,18.72c-26.8,36.88-52.56,75.84-78.32,115.6-77,119.36-153.44,245.2-257.12,338.32-2.16,2.08-4.4,4-6.56,5.84A596.12,596.12,0,0,1,31.6,3453c-2.48,1.76-5.12,3.52-7.68,5.28-7.84,5.28-15.76,10.4-23.92,15.28V1735.36c16.64,3.2,33.2,6.64,49.84,10.32,8.24,1.84,16.56,3.76,24.88,5.76,17.2,4,34.32,8.32,51.52,12.88,96.56,25.44,192.24,57.6,285.2,89.76,24.8,8.56,49.52,17,74.32,25.68,7.76,2.64,15.52,5.28,23.28,8,.88.32,1.68.56,2.56.88,9.6,3.28,19.12,6.56,28.72,9.92q64.8,22.32,129.76,44.8c10.56,3.68,21.12,7.28,31.68,11l3.44,1.2q83.64,28.8,167.28,57.68c100.64,34.88,202.72,70.4,296.88,119.36l9.12,4.8q17.4,9.24,34.48,19.2c3,1.76,6.08,3.6,9.12,5.36a810.36,810.36,0,0,1,81.28,55.6c66.88,52.08,126.08,119,149.68,200.48C1476.8,2499.36,1457.92,2596.72,1391.84,2649.92Z"/></g><path class="cls-9" d="M1328.48,2608.24c-117.2,94.48-286.48-.08-436.8-8.16-46.8-2.56-92.16,3.92-135.76,17.2-4.32,1.28-8.56,2.72-12.8,4.16-73.6,25.12-141.68,69.76-202.24,124.32-18.4,16.48-36.08,34-53,52.08a998.89,998.89,0,0,0-67.76,80.64c-14.16,18.72-27.92,38.08-41.52,58-18.32,26.8-36.32,54.56-54.4,82.56-84.24,130.88-168.88,268.24-294,355.68-2.4,1.68-4.88,3.36-7.36,5-7.44,5-15,9.92-22.8,14.56v-1659c16.64,3.2,33.2,6.64,49.84,10.32,8.24,1.84,16.56,3.76,24.88,5.76,17.2,4.08,34.4,8.48,51.52,13,90.24,24.08,179.6,54.16,266.48,84.16l93.12,32.16,25.68,8.88c9.44,3.2,18.88,6.48,28.32,9.76l129.92,44.88c11.68,4,23.44,8.08,35.12,12.08l127.84,44.16c111.12,38.48,224,77.76,325,136.8,3,1.68,5.84,3.44,8.72,5.12a772.55,772.55,0,0,1,77.6,53c63.84,49.76,120.32,113.6,142.88,191.36S1391.52,2557.52,1328.48,2608.24Z"/><g class="cls-5"><path class="cls-6" d="M1163.2,3645.28c-7.2,129.2-69,244.4-140.32,354.72H0V1783.12C84.8,1921.6,160.24,2094,213.28,2201.92c13.44,27.6,25.52,50.88,35.92,68.32,1,1.68,2,3.44,3,5.12,1.36,2.4,2.8,4.8,4.24,7.2,12.8,21.76,25.6,43.36,38.48,65,1.28,2.08,2.48,4.24,3.76,6.4q16.56,27.84,33.12,55.84c1.52,2.64,3,5.2,4.64,7.84,1.2,2,2.4,4.08,3.6,6.08q27.12,45.84,54.32,91.76c7.84,13.28,15.76,26.56,23.6,39.84,32.64,55.12,65.2,110.24,102.32,162.4,6.16,8.8,12.48,17.36,19,26,.48.64,1,1.36,1.6,2,10.64,14.16,21.76,27.92,33.2,41.44,65,77.44,139.92,146.32,214.48,215.44.88.8,1.76,1.68,2.64,2.4,2.08,2,4.24,4,6.32,5.92q18.72,17.28,37.2,34.72c34.48,32.48,68.4,65.44,100.88,99.84,61.28,65.12,118.16,138.72,159.68,218.16,1.52,2.8,3,5.68,4.4,8.48,5.6,11,11,22.24,15.92,33.52,1.28,2.88,2.56,5.76,3.76,8.64C1150.56,3487.68,1167.68,3565.2,1163.2,3645.28Z"/></g><path class="cls-8" d="M1090.56,3667.44c-6.8,121.12-64.64,229.12-131.6,332.56H0V1921.6C79.52,2051.44,150.24,2213,199.92,2314.24c1.2,2.48,2.4,4.88,3.6,7.28,11.2,22.72,21.36,42,30.08,56.8l43,72.48c1.2,2,2.32,4,3.52,6,5.2,8.8,10.4,17.52,15.6,26.32L348,2571.44l43.92,74.16c30.56,51.68,61.12,103.36,95.92,152.24,5.76,8.24,11.68,16.32,17.76,24.4,4.48,6,9,11.84,13.76,17.68,45,56.8,95.92,108.32,148.64,158.4,26.32,25,53,49.68,79.68,74.4,17.52,16.24,35,32.56,52.32,49.12,26.32,25.12,52.24,50.64,77.12,77,57.52,61,110.8,130.08,149.76,204.56q2.16,4,4.08,7.92C1071.68,3491.52,1095.6,3577.84,1090.56,3667.44Z"/><g class="cls-5"><path class="cls-6" d="M6000,0V1950.48c-36.48-17.6-68.32-43.6-92.16-78.8-25.92-38.24-39.2-80.48-44.4-124.88-6.48-55.44-.24-114.32,9.92-173.12v-.08c6.8-39.12,15.28-78.32,23-116.4,1.12-5.76,2.32-11.44,3.44-17.12a628.6,628.6,0,0,0,11.52-109V1331c.16-9.84.08-19.68-.32-29.44-2.08-56.08-13-110.72-36.32-155.76-21.84-42.16-54.48-75.84-101-94.16-103.76-41-213.2,19.52-307.28,85.68-12.24,8.56-24.16,17.28-35.84,25.84-62.16,45.68-137.36,90.48-211.12,103.44a250.28,250.28,0,0,1-32.48,3.52,206.87,206.87,0,0,1-29-.88,174.05,174.05,0,0,1-73-24.08c-77.44-46.48-104.24-147.36-100-237.52,1.52-32.56,6.16-64.88,11.6-97.12,9.52-57,21.44-113.68,23-171.36C5021.2,674.24,5010,612,4989,552.8c-1-2.88-2-5.76-3-8.56-2.4-6.4-4.88-12.8-7.52-19.12-1-2.48-2-4.88-3.12-7.36-23-54-53.92-105.36-90.24-154-73-97.84-167.92-184.4-264.16-258.16-38.8-29.68-89.28-65.44-143-105.6Z"/></g><path class="cls-8" d="M6000,0V1782.16a231.66,231.66,0,0,1-21-11.52,208.76,208.76,0,0,1-63.28-60.48c-28-41.28-39.84-87.68-42.4-136.48v-.08c-4.08-78.32,15.92-162.72,31.92-242.16v-.16c1-5.2,2.08-10.4,3.12-15.52.88-4.72,1.76-9.44,2.56-14.24,8.88-52.72,11.2-110.56,2.8-164-12.4-78.88-48.24-148.08-120.64-176.72-107-42.24-220.8,33.76-313.52,101.92-25.36,18.64-53.12,37.12-82,52.88-54.08,29.52-112.32,49.68-167,44.08a162.62,162.62,0,0,1-66.8-22c-60.72-36.56-87.44-109.76-91.2-181.84a344.72,344.72,0,0,1-.16-35.2c3.92-82.4,29.44-162.8,31.68-245.28,1.6-59.28-8.64-116.16-27.84-170.24-.88-2.64-1.84-5.28-2.8-7.84-24.32-65.44-61.6-126.88-106.88-183.92-64.4-81.6-145-154.32-226.64-216.88-35.44-27.12-81.6-59.76-130.64-96.48Z"/><g class="cls-5"><path class="cls-6" d="M961.2,641.92c-117.68,7.84-226.24-42.8-334.08-95.84-7.6-3.68-15.2-7.44-22.8-11.2-36.08-17.68-72.08-35.28-108.48-50.56Q468.24,472.68,440,463c-3.52-1.36-7.12-2.56-10.72-3.68q-38.76-13.2-78.56-22.8A1012,1012,0,0,0,128.8,407.36q-21.84-.48-43.68,0-42.72,1-85.12,5.36V0H1350.4C1387.36,291.36,1264.4,621.92,961.2,641.92Z"/></g><path class="cls-4" d="M903.2,603.2c-101,6.72-194.8-32.4-287.52-77.12-7.84-3.76-15.68-7.6-23.44-11.44-42.08-20.64-84-41.68-126.32-59.52-9.76-4.08-19.68-8.08-29.6-11.76-3.68-1.44-7.36-2.88-11.12-4.16v-.08q-38.4-13.92-77.84-24.4A951.34,951.34,0,0,0,119.68,382.8c-15-.32-30.16-.32-45.2.16C49.6,383.6,24.8,385.28,0,387.84V0H1268.88C1303.6,273.76,1188.08,584.4,903.2,603.2Z"/><path class="cls-9" d="M1323.84,4000h-9.52c62.16-95.28,88.24-218.08,68.32-329.6-11.84-66.24-45.36-157-137.84-212.88-39.6-23.92-81.68-37.36-125.44-43.2-28.8-3.92-58.4-4.64-88.4-3-78.56,4.16-160.24,24.32-240.56,44.16-48,11.84-97.68,24.08-145.44,32.56a909.25,909.25,0,0,1-211.52,12.16q-32.76-1.92-65.28-6.16a959.51,959.51,0,0,1-283.92-82.56c-20.88-9.84-41.44-20.4-61.44-31.76-7.68-4.32-15.28-8.8-22.8-13.36V3357c9.92,6.08,20,12,30.16,17.68q29.64,16.68,60.64,31a943.11,943.11,0,0,0,286.56,81.52c19,2.32,38.24,4,57.44,5a899,899,0,0,0,208.8-12c47.44-8.48,97-20.64,144.88-32.48,79.52-19.6,160.32-39.52,238.4-44.32,30.08-1.84,59.68-1.36,88.72,2.24,46.4,5.68,91.2,19.52,133.36,45,74.16,44.8,124.4,122.4,141.52,218.4C1410.4,3780.8,1385,3903.68,1323.84,4000Z"/><path class="cls-11" d="M6000,3966.32V4000H5256.08c51.6-144.08,201.28-256.8,356.32-240.88,111.6,11.44,209.76,76.32,300,143l7.36,5.44C5946.24,3927.2,5972.88,3947.2,6000,3966.32Z"/><path class="cls-11" d="M6000,0V918.24c-92.48-15.68-191.68-25.92-240.16-102.08-13.84-21.68-21-45.36-24.64-70.16-.16-.88-.24-1.76-.4-2.64-6.72-50.32,1.2-105.12-.16-158-.08-2.72-.16-5.36-.32-8-.4-9.68-1.12-19.36-2.4-28.88C5718.48,449,5650.32,366.8,5586,289.68,5507,195,5456.56,93.6,5460.32,0Z"/><path class="cls-11" d="M6000,1773.12V3235.28c-11.2-6.4-22.56-12.56-33.92-18.64-73.36-39-155.92-77.92-208.24-138.48-19-21.84-33.92-46.48-43-75a3.9,3.9,0,0,1-.32-.88c-33.44-105.68,28.56-214.72,75.12-315.36,56.4-121.84,91.68-253.2,105.52-386.8.32-3.12.64-6.16.88-9.28,3-30.32,4.72-60.8,5.36-91.2.16-2.8.16-5.68.24-8.48,2.48-154.88-23.6-310.16-78.72-454.88q20.16,5.4,40.56,10.56c38.08,9.68,76.8,18.48,115.6,23.84C5986,1771.6,5993,1772.48,6000,1773.12Z"/><path class="cls-11" d="M781.84,2353.12c-43.68-14-92.72-26.32-140.48-30.72-2.72-.32-5.36-.48-8-.64-28.56-2.24-56.56-1.44-82.48,3.6-27.2,5.2-52.16,15.12-73.2,31.28a145.57,145.57,0,0,0-34.48,37.84c-21.68,34.16-27.52,75.84-44.56,112.56-1.36,2.88-2.72,5.68-4.24,8.48a182.32,182.32,0,0,1-46.4,55.92c-38.88,31.68-90.16,49.12-140.56,48.72-38.08-.32-75.76-10.8-107.2-33l50.4,97q52.68,101.64,105.6,203.28l33.36,64.32c11.6,22.32,23.2,44.72,34.56,67.28,8.08,16,16.08,32.16,23.76,48.32,39.84,83.36,73.68,169.2,87.68,260.16.32,2,.64,4,.88,6A534.86,534.86,0,0,1,441,3439.76a481.37,481.37,0,0,1-6.16,52.48c-.4,2.64-.88,5.28-1.36,8-14.64,76.72-48.48,148.32-105.52,201C241.6,3781,119.44,3804.16,0,3798.88V1424.56c15.2,3.92,29.92,9.28,43.76,17.2C107.12,1478,133,1557.2,135,1630.16c1.12,44.8-4.64,89.44-8.72,134.16v.16c-2.48,28-4.32,56-3.28,84.08,5.44,144.72,102.88,285.36,235.76,334.72,3.52,1.28,7,2.56,10.56,3.68A281.71,281.71,0,0,0,417,2198.4c7,1.2,14,2,21.12,2.56,60.8,4.8,122.32-8.16,182.72-5.68,7.84.32,15.6,1,23.36,1.92,5.44.56,10.88,1.44,16.24,2.4,32.88,6,65.84,23.52,89.76,47.36,2.08,2.08,4.16,4.24,6.08,6.4C781.6,2281.6,794.4,2317.36,781.84,2353.12Z"/><path class="cls-11" d="M849.44,279c-55.44,45.36-138.32,23.12-203.12-7.28-36.4-17-74.72-36.32-113.36-46.08a214.51,214.51,0,0,0-28.8-5.44c-20.8-2.4-41.6-1.2-62.16,5.36a123.16,123.16,0,0,0-23.6,10.32,88.92,88.92,0,0,0-12.24,7.92c-48.48,35.52-66.4,104-58.8,171,.8,7.28,1.92,14.56,3.36,21.76,5.44,27.52,15.2,54.24,29,77.52,28.08,47.68,66.32,87.84,105.44,127.28,3.84,3.92,7.76,7.76,11.6,11.68,37.2,37.28,74.48,74.56,104.08,117.76,36.24,52.64,55.52,127.36,38,184.64-.56,1.92-1.12,3.84-1.84,5.68a111.81,111.81,0,0,1-12.08,24.64,89.69,89.69,0,0,1-5.68,7.92,105.42,105.42,0,0,1-27.6,24.64c-64.08,39.92-150.64,1.92-201-54.24s-80.8-128.4-132.8-183.12A217.09,217.09,0,0,0,180.64,729c-3.76-1.52-7.6-2.88-11.44-4.16-39.44-12.56-81-11.12-113.84,13.44-19.6,14.64-31.92,33.12-39.2,54.16a165,165,0,0,0-7.68,35.12c-11,93.68,37.6,218.64-8.48,298.32V0H795.76c.56.56,1.12,1.2,1.68,1.76C834.24,40,869.52,82.16,884.72,133S890.48,245.28,849.44,279Z"/><circle class="cls-12" cx="1222.17" cy="716.62" r="58.92"/><circle class="cls-12" cx="4776.14" cy="3151.32" r="58.92"/><circle class="cls-13" cx="461.36" cy="3824.95" r="58.92"/><circle class="cls-13" cx="1447.05" cy="944.95" r="58.92"/><circle class="cls-13" cx="5274.38" cy="1989.56" r="58.92"/><circle class="cls-13" cx="4443.86" cy="232.27" r="58.92"/><circle class="cls-13" cx="451.25" cy="242.38" r="58.92"/><circle class="cls-14" cx="1178.06" cy="1120.68" r="33.65"/><path class="cls-14" d="M4580.88,2936.54a33.65,33.65,0,1,1-33.65-33.65A33.65,33.65,0,0,1,4580.88,2936.54Z"/><path class="cls-4" d="M358,3229.42a33.65,33.65,0,1,1-33.65-33.65A33.65,33.65,0,0,1,358,3229.42Z"/><path class="cls-4" d="M5825.11,3712.16a33.66,33.66,0,1,1-33.65-33.65A33.66,33.66,0,0,1,5825.11,3712.16Z"/><path class="cls-14" d="M1568.57,3742.48a33.66,33.66,0,1,1-33.65-33.65A33.66,33.66,0,0,1,1568.57,3742.48Z"/><path class="cls-3" d="M3203.2,0C3153,306.48,2971.84,575.84,2626.8,630.16c-184.08,29-392.72-12-541.92,99.68-141,105.52-169,305.2-276.08,445-200.72,262-596.24,237.92-901,367.28-3.68,1.44-7.28,3-11,4.64a749.21,749.21,0,0,0-89.76,46.4q-18.12,10.92-35.44,23.12c-8.8,6.08-17.36,12.4-25.84,19-90.4,70.72-154.08,162.08-205.44,263.28a8.73,8.73,0,0,0-.48.88C519.76,1939,501.6,1980.08,484.4,2022c-.64,1.52-1.28,3.12-1.92,4.72a5.51,5.51,0,0,0-.24.64c-22.88,56-43.92,113.6-65.28,171-26.56,71.6-53.6,143-85.12,211.44-2,4.64-4.16,9.2-6.32,13.76-1.68,3.6-3.36,7.2-5.12,10.8q-11.88,24.72-24.72,48.72c-25.76,48.32-54.64,94.4-88.24,137q-18.24,23.28-38.4,45c-6,6.48-12.16,12.8-18.4,19a657.89,657.89,0,0,1-102.32,83c-15.68,10.48-31.84,20.16-48.32,29.12V0Z"/></g></g></svg>